<svg class="svg-icon" style="width: 1em;height: 1em;vertical-align: middle;fill: currentColor;overflow: hidden;" viewBox="0 0 1024 1024" version="1.1" xmlns="http://www.w3.org/2000/svg"><path d="M790.8352 327.5264l4.3008 3.7376 153.6 153.6a38.4 38.4 0 0 1 3.7376 49.9712l-3.7376 4.3008-153.6 153.6a38.4 38.4 0 0 1-58.0096-49.9712l3.7376-4.3008 87.9616-88.064H416.3584c-24.9344 0-45.1584-17.2032-45.1584-38.4 0-19.456 16.9984-35.4816 39.0656-38.0416l6.144-0.3584h412.5184l-88.064-88.064a38.4 38.4 0 0 1-3.7376-49.9712l3.7376-4.3008a38.4 38.4 0 0 1 49.9712-3.7376z" fill="#303D66" /><path d="M563.2 64c80.9472 0 158.8736 21.504 227.1744 61.7984a38.4 38.4 0 1 1-39.0144 66.1504 371.2 371.2 0 1 0-3.2768 642.048 38.4 38.4 0 1 1 38.2976 66.56A448 448 0 1 1 563.2 64z" fill="#303D66" /></svg>